<?xml version="1.0" encoding="UTF-8"?>
<svg width="20" height="20" viewBox="0 0 20 20" xmlns="http://www.w3.org/2000/svg">
  <circle cx="2" cy="2" r="0.5" fill="currentColor" opacity="0.1"/>
  <circle cx="6" cy="2" r="0.5" fill="currentColor" opacity="0.1"/>
  <circle cx="10" cy="2" r="0.5" fill="currentColor" opacity="0.1"/>
  <circle cx="14" cy="2" r="0.5" fill="currentColor" opacity="0.1"/>
  <circle cx="18" cy="2" r="0.5" fill="currentColor" opacity="0.1"/>
  <circle cx="2" cy="6" r="0.5" fill="currentColor" opacity="0.1"/>
  <circle cx="6" cy="6" r="0.5" fill="currentColor" opacity="0.1"/>
  <circle cx="10" cy="6" r="0.5" fill="currentColor" opacity="0.1"/>
  <circle cx="14" cy="6" r="0.5" fill="currentColor" opacity="0.1"/>
  <circle cx="18" cy="6" r="0.5" fill="currentColor" opacity="0.1"/>
  <circle cx="2" cy="10" r="0.5" fill="currentColor" opacity="0.1"/>
  <circle cx="6" cy="10" r="0.5" fill="currentColor" opacity="0.1"/>
  <circle cx="10" cy="10" r="0.5" fill="currentColor" opacity="0.1"/>
  <circle cx="14" cy="10" r="0.5" fill="currentColor" opacity="0.1"/>
  <circle cx="18" cy="10" r="0.5" fill="currentColor" opacity="0.1"/>
  <circle cx="2" cy="14" r="0.5" fill="currentColor" opacity="0.1"/>
  <circle cx="6" cy="14" r="0.5" fill="currentColor" opacity="0.1"/>
  <circle cx="10" cy="14" r="0.5" fill="currentColor" opacity="0.1"/>
  <circle cx="14" cy="14" r="0.5" fill="currentColor" opacity="0.1"/>
  <circle cx="18" cy="14" r="0.5" fill="currentColor" opacity="0.1"/>
  <circle cx="2" cy="18" r="0.5" fill="currentColor" opacity="0.1"/>
  <circle cx="6" cy="18" r="0.5" fill="currentColor" opacity="0.1"/>
  <circle cx="10" cy="18" r="0.5" fill="currentColor" opacity="0.1"/>
  <circle cx="14" cy="18" r="0.5" fill="currentColor" opacity="0.1"/>
  <circle cx="18" cy="18" r="0.5" fill="currentColor" opacity="0.1"/>
</svg> 